<svg xmlns="http://www.w3.org/2000/svg" viewBox="0 0 1024 1024" width="1024" height="1024"><g fill="none" stroke="#F2B544" stroke-width="46" stroke-linecap="round" transform="translate(0 4)"><path d="M506 392 C500 330 514 286 552 256"/><path d="M532 396 C548 340 582 306 628 296"/></g><path d="M102 770 A410 410 0 0 1 922 770 Z" fill="#F2B544"/><g fill="#1B2538"><circle cx="380" cy="582" r="50"/><circle cx="644" cy="582" r="50"/></g><g fill="#F2B544"><path d="M312 512 H448 V580 Q380 622 312 580 Z"/><path d="M576 512 H712 V564 Q644 606 576 564 Z"/></g><g fill="none" stroke="#1B2538" stroke-width="24" stroke-linecap="round"><path d="M316 580 Q380 622 444 580"/><path d="M580 564 Q644 606 708 564"/></g><path d="M486.0 636 H538.0 L512 676 Z" fill="#1B2538" stroke="#1B2538" stroke-width="10" stroke-linejoin="round"/></svg>